<svg xmlns="http://www.w3.org/2000/svg" width="1024" height="1024" viewBox="0 0 48 48">
  <defs>
    <linearGradient id="bg" x1="0" y1="0" x2="1" y2="1">
      <stop offset="0" stop-color="#4CC2FF"/>
      <stop offset="0.5" stop-color="#0F6CBD"/>
      <stop offset="1" stop-color="#6B2FBF"/>
    </linearGradient>
    <linearGradient id="gloss" x1="0" y1="0" x2="0" y2="1">
      <stop offset="0" stop-color="#FFFFFF" stop-opacity="0.5"/>
      <stop offset="0.55" stop-color="#FFFFFF" stop-opacity="0.1"/>
      <stop offset="1" stop-color="#FFFFFF" stop-opacity="0"/>
    </linearGradient>
  </defs>
  <rect width="48" height="48" rx="12" fill="url(#bg)"/>
  <rect width="48" height="26" rx="12" fill="url(#gloss)"/>
  <g transform="translate(0 1.8)" opacity="0.35">
    <path d="M13.5 18A10.5 10.5 0 0 1 34.5 18" fill="none" stroke="#00203F" stroke-width="5" stroke-linecap="round"/>
    <path d="M34.5 30A10.5 10.5 0 0 1 13.5 30" fill="none" stroke="#00203F" stroke-width="5" stroke-linecap="round"/>
    <polygon points="29.5 19.5 39.5 19.5 34.5 27" fill="#00203F"/>
    <polygon points="18.5 28.5 8.5 28.5 13.5 21" fill="#00203F"/>
  </g>
  <path d="M13.5 18A10.5 10.5 0 0 1 34.5 18" fill="none" stroke="#FFFFFF" stroke-width="5" stroke-linecap="round"/>
  <path d="M34.5 30A10.5 10.5 0 0 1 13.5 30" fill="none" stroke="#FFFFFF" stroke-width="5" stroke-linecap="round"/>
  <polygon points="29.5 19.5 39.5 19.5 34.5 27" fill="#FFFFFF"/>
  <polygon points="18.5 28.5 8.5 28.5 13.5 21" fill="#FFFFFF"/>
</svg>
